<svg width="25" height="25" viewBox="0 0 25 25" fill="none" xmlns="http://www.w3.org/2000/svg">
<path d="M12.4999 11.9798C11.8093 11.9798 11.1469 11.7055 10.6585 11.2171C10.1701 10.7287 9.89575 10.0663 9.89575 9.37565C9.89575 8.68498 10.1701 8.0226 10.6585 7.53423C11.1469 7.04585 11.8093 6.77148 12.4999 6.77148C13.1906 6.77148 13.853 7.04585 14.3413 7.53423C14.8297 8.0226 15.1041 8.68498 15.1041 9.37565C15.1041 9.71763 15.0367 10.0563 14.9059 10.3722C14.775 10.6882 14.5832 10.9753 14.3413 11.2171C14.0995 11.4589 13.8124 11.6507 13.4965 11.7816C13.1805 11.9125 12.8419 11.9798 12.4999 11.9798ZM12.4999 2.08398C10.566 2.08398 8.71138 2.85221 7.34393 4.21966C5.97648 5.58712 5.20825 7.44178 5.20825 9.37565C5.20825 14.8444 12.4999 22.9173 12.4999 22.9173C12.4999 22.9173 19.7916 14.8444 19.7916 9.37565C19.7916 7.44178 19.0234 5.58712 17.6559 4.21966C16.2885 2.85221 14.4338 2.08398 12.4999 2.08398Z" fill="#232D32"/>
</svg>
