<svg width="20" height="20" viewBox="0 0 20 20" fill="none" xmlns="http://www.w3.org/2000/svg">
<path d="M10 14.1673C9.07504 14.1673 8.33337 13.4173 8.33337 12.5007C8.33337 11.5757 9.07504 10.834 10 10.834C10.4421 10.834 10.866 11.0096 11.1786 11.3221C11.4911 11.6347 11.6667 12.0586 11.6667 12.5007C11.6667 12.9427 11.4911 13.3666 11.1786 13.6792C10.866 13.9917 10.4421 14.1673 10 14.1673ZM15 16.6673V8.33398H5.00004V16.6673H15ZM15 6.66732C15.4421 6.66732 15.866 6.84291 16.1786 7.15547C16.4911 7.46803 16.6667 7.89196 16.6667 8.33398V16.6673C16.6667 17.1093 16.4911 17.5333 16.1786 17.8458C15.866 18.1584 15.4421 18.334 15 18.334H5.00004C4.07504 18.334 3.33337 17.584 3.33337 16.6673V8.33398C3.33337 7.40898 4.07504 6.66732 5.00004 6.66732H5.83337V5.00065C5.83337 3.89558 6.27236 2.83577 7.05376 2.05437C7.83516 1.27297 8.89497 0.833984 10 0.833984C10.5472 0.833984 11.089 0.941758 11.5946 1.15115C12.1001 1.36055 12.5594 1.66746 12.9463 2.05437C13.3332 2.44128 13.6401 2.90061 13.8495 3.40614C14.0589 3.91166 14.1667 4.45348 14.1667 5.00065V6.66732H15ZM10 2.50065C9.337 2.50065 8.70111 2.76404 8.23227 3.23288C7.76343 3.70173 7.50004 4.33761 7.50004 5.00065V6.66732H12.5V5.00065C12.5 4.33761 12.2366 3.70173 11.7678 3.23288C11.299 2.76404 10.6631 2.50065 10 2.50065Z" fill="#646464"/>
</svg>
