<svg width="20" height="25" viewBox="0 0 20 25" fill="none" xmlns="http://www.w3.org/2000/svg">
<path d="M10 18.8346C8.70502 18.8346 7.66669 17.7846 7.66669 16.5013C7.66669 15.2063 8.70502 14.168 10 14.168C10.6189 14.168 11.2124 14.4138 11.6499 14.8514C12.0875 15.289 12.3334 15.8825 12.3334 16.5013C12.3334 17.1201 12.0875 17.7136 11.6499 18.1512C11.2124 18.5888 10.6189 18.8346 10 18.8346ZM17 22.3346V10.668H3.00002V22.3346H17ZM17 8.33463C17.6189 8.33463 18.2124 8.58047 18.6499 9.01805C19.0875 9.45564 19.3334 10.0491 19.3334 10.668V22.3346C19.3334 22.9535 19.0875 23.547 18.6499 23.9846C18.2124 24.4221 17.6189 24.668 17 24.668H3.00002C1.70502 24.668 0.666687 23.618 0.666687 22.3346V10.668C0.666687 9.37297 1.70502 8.33463 3.00002 8.33463H4.16669V6.0013C4.16669 4.45421 4.78127 2.97047 5.87523 1.87651C6.96919 0.78255 8.45292 0.167969 10 0.167969C10.7661 0.167969 11.5246 0.318852 12.2323 0.612005C12.9401 0.905157 13.5831 1.33484 14.1248 1.87651C14.6665 2.41819 15.0962 3.06125 15.3893 3.76898C15.6825 4.47671 15.8334 5.23526 15.8334 6.0013V8.33463H17ZM10 2.5013C9.07176 2.5013 8.18152 2.87005 7.52515 3.52643C6.86877 4.18281 6.50002 5.07304 6.50002 6.0013V8.33463H13.5V6.0013C13.5 5.07304 13.1313 4.18281 12.4749 3.52643C11.8185 2.87005 10.9283 2.5013 10 2.5013Z" fill="#646464"/>
</svg>
