<svg width="22" height="24" viewBox="0 0 22 24" fill="none" xmlns="http://www.w3.org/2000/svg">
<path d="M11 0C13.9467 0 16.3333 2.38667 16.3333 5.33333C16.3333 8.28 13.9467 10.6667 11 10.6667C8.05334 10.6667 5.66667 8.28 5.66667 5.33333C5.66667 2.38667 8.05334 0 11 0ZM16.3333 14.0533C16.3333 15.4667 15.96 18.76 13.4133 22.44L12.3333 16L13.5867 13.4933C12.76 13.4 11.8933 13.3333 11 13.3333C10.1067 13.3333 9.24 13.4 8.41334 13.4933L9.66667 16L8.58667 22.44C6.04 18.76 5.66667 15.4667 5.66667 14.0533C2.48 14.9867 0.333336 16.6667 0.333336 18.6667V24H21.6667V18.6667C21.6667 16.6667 19.5333 14.9867 16.3333 14.0533Z" fill="black"/>
</svg>
