<svg width="16" height="18" viewBox="0 0 16 18" fill="none" xmlns="http://www.w3.org/2000/svg">
<path d="M10.9643 10.6287C9.96087 10.6287 9.47839 11.1881 7.83164 11.1881C6.1849 11.1881 5.70591 10.6287 4.69899 10.6287C2.10475 10.6287 0 12.7334 0 15.3276V16.2227C0 17.1492 0.751698 17.9009 1.67821 17.9009H13.9851C14.9116 17.9009 15.6633 17.1492 15.6633 16.2227V15.3276C15.6633 12.7334 13.5585 10.6287 10.9643 10.6287ZM13.9851 16.2227H1.67821V15.3276C1.67821 13.6634 3.03476 12.3069 4.69899 12.3069C5.20944 12.3069 6.03806 12.8663 7.83164 12.8663C9.63921 12.8663 10.4503 12.3069 10.9643 12.3069C12.6285 12.3069 13.9851 13.6634 13.9851 15.3276V16.2227ZM7.83164 10.0693C10.6112 10.0693 12.8663 7.81416 12.8663 5.03463C12.8663 2.25509 10.6112 0 7.83164 0C5.05211 0 2.79702 2.25509 2.79702 5.03463C2.79702 7.81416 5.05211 10.0693 7.83164 10.0693ZM7.83164 1.67821C9.68117 1.67821 11.1881 3.1851 11.1881 5.03463C11.1881 6.88415 9.68117 8.39105 7.83164 8.39105C5.98212 8.39105 4.47522 6.88415 4.47522 5.03463C4.47522 3.1851 5.98212 1.67821 7.83164 1.67821Z" fill="#646464"/>
</svg>
